PathFileType	4	(x/y/z)	S09_P20_T28
DataRate	CameraRate	NumFrames	NumMarkers	Units	OrigDataRate	OrigDataStartFrame	OrigNumFrames
240	240	9	51	mm	240	363	414
Frame#	Time	Sternum			R.Acromium			L.Acromium			Top.Head			R.ASIS			L.ASIS			R.PSIS			L.PSIS			R.Great.Tro			L.Great.Tro			R.Iliac.Crest			L.Iliac.Crest			V.Sacral			R.Thigh.Upper.Post			R.Thigh.Lower.Ant			R.Thigh.Lower.Post			R.Thigh.Upper.Ant			R.Knee.Lat			R.Knee.Med			R.Shank.Upper.Post			R.Shank.Lower.Ant			R.Shank.Lower.Post			R.Shank.Upper.Ant			R.Ankle.Lat			R.Ankle.Med			R.Heel.Upper			R.Heel.Med			R.Heel.Lat			R.Toe.Lat			R.Toe.Med			R.Toe.Tip			L.Thigh.Upper.Post			L.Thigh.Lower.Ant			L.Thigh.Lower.Post			L.Thigh.Upper.Ant			L.Knee.Lat			L.Knee.Med			L.Shank.Upper.Post			L.Shank.Lower.Ant			L.Shank.Lower.Post			L.Shank.Upper.Ant			L.Ankle.Lat			L.Ankle.Med			L.Heel.Upper			L.Heel.Med			L.Heel.Lat			L.Toe.Lat			L.Toe.Med			L.Toe.Tip			Cervical.Spine			Back			
		X1	Y1	Z1	X2	Y2	Z2	X3	Y3	Z3	X4	Y4	Z4	X5	Y5	Z5	X6	Y6	Z6	X7	Y7	Z7	X8	Y8	Z8	X9	Y9	Z9	X10	Y10	Z10	X11	Y11	Z11	X12	Y12	Z12	X13	Y13	Z13	X14	Y14	Z14	X15	Y15	Z15	X16	Y16	Z16	X17	Y17	Z17	X18	Y18	Z18	X19	Y19	Z19	X20	Y20	Z20	X21	Y21	Z21	X22	Y22	Z22	X23	Y23	Z23	X24	Y24	Z24	X25	Y25	Z25	X26	Y26	Z26	X27	Y27	Z27	X28	Y28	Z28	X29	Y29	Z29	X30	Y30	Z30	X31	Y31	Z31	X32	Y32	Z32	X33	Y33	Z33	X34	Y34	Z34	X35	Y35	Z35	X36	Y36	Z36	X37	Y37	Z37	X38	Y38	Z38	X39	Y39	Z39	X40	Y40	Z40	X41	Y41	Z41	X42	Y42	Z42	X43	Y43	Z43	X44	Y44	Z44	X45	Y45	Z45	X46	Y46	Z46	X47	Y47	Z47	X48	Y48	Z48	X49	Y49	Z49	X50	Y50	Z50	X51	Y51	Z51	

363	1.5083	534.89	1175.7	328.48	392.76	1419.4	463.97	414.7	1432.9	163.53	427.86	1733.4	325.13	468.53	1010.7	424.47	473.68	1009.4	179.73	249.49	1034.1	346.21	259	1044.5	257.21	385.79	924.84	496.08	388.3	928.64	108.89	380.67	1088.3	465.17	377.24	1109.7	145.84	236.22	1004.2	296.98	457.53	685.48	486.92	554.97	607.65	452.58	476.98	595.76	462.28	528.89	691.9	477.3	557.87	534.77	445.53	548.12	515.25	319.49	553.32	351.44	463.57	639.33	320.65	455.58	580.44	279.33	457.67	607.79	387.79	462.4	685.37	112.56	450.22	709.81	134.26	366.04	638.62	64.073	396.67	664.25	40.708	369.49	653.58	38.455	433.3	800.57	97.961	492.43	843	126.24	391.58	874.52	162.58	436.57	262.78	700.84	165.43	314.84	585.77	161.33	252.82	611.24	180.7	325.17	672.47	140.17	279.05	508.8	173.72	302.7	519.05	304.16	201.86	385.36	167.41	246.77	285.7	184.2	187.15	310.42	177.95	260.9	362.02	174.85	168.71	110.11	211.55	183.15	104.41	303.77	91.141	76.689	263.74	102.29	50.677	295.82	90.406	49.442	235.17	263.22	42.234	179.26	301.56	38.262	287.95	353.42	51.236	228.31	318.56	1475.9	320.72	273.18	1212.3	290.55
364	1.5125	540.42	1174.5	328.86	398.1	1418.4	464.44	419.75	1431.8	163.88	433	1732.5	325.42	474.12	1009.7	425	478.86	1008.4	180.17	254.92	1033.2	346.89	264.32	1043.6	257.9	391.32	923.81	496.5	393.11	927.79	109.18	386.28	1087.2	465.78	382.53	1108.8	146.4	241.58	1003.3	297.65	463.15	684.61	486.97	560.67	606.93	452.55	482.67	594.96	462.13	534.52	691.09	477.51	563.62	534.07	445.27	553.96	514.76	319.35	558.98	350.65	463.17	644.91	319.79	454.95	586	278.55	457.18	613.48	386.94	461.88	690.93	111.87	449.43	715	133.53	365.16	643.95	63.781	396.11	669.41	40.351	368.85	658.96	38.155	432.71	806.18	97.264	491.33	848.3	125.48	390.34	879.95	161.85	435.2	267.1	700.41	165.74	318.77	585.16	161.62	256.86	610.84	181.02	329.39	671.84	140.44	282.71	508.29	174.09	306.5	518.38	304.47	204.68	385.42	167.62	248.79	285.4	184.42	189.38	310.61	178.12	263.54	361.63	175.12	169.09	110.49	211.62	183.5	104.65	303.83	91.26	76.994	263.78	102.37	50.959	295.86	90.477	49.753	235.21	263.26	42.183	179.29	301.65	38.159	287.93	353.56	50.983	228.28	323.84	1474.9	321.17	278.51	1211.1	291.14
365	1.5167	545.96	1173.3	329.26	403.47	1417.4	464.93	424.81	1430.6	164.24	438.14	1731.6	325.7	479.73	1008.6	425.53	484.06	1007.4	180.6	260.37	1032.3	347.56	269.67	1042.7	258.59	396.92	922.86	496.93	397.94	926.93	109.5	391.89	1086.2	466.39	387.84	1107.9	146.97	246.97	1002.4	298.33	468.85	683.81	486.99	566.5	606.3	452.48	488.49	594.23	461.96	540.24	690.36	477.7	569.45	533.39	445	560.04	514.38	319.25	564.46	349.9	462.7	650.27	318.83	454.31	591.25	277.76	456.61	619.04	386.04	461.36	695.93	111.05	448.62	719.71	132.64	364.29	648.67	63.549	395.52	673.92	40.006	368.17	663.65	37.87	432.06	811.16	96.199	490.26	853.07	124.3	389.16	884.9	160.61	433.93	271.51	699.94	166.06	322.82	584.53	161.97	261	610.4	181.38	333.7	671.17	140.75	286.48	507.76	174.52	310.37	517.72	304.86	207.58	385.5	167.88	250.87	285.11	184.69	191.67	310.81	178.34	266.26	361.23	175.44	169.49	110.91	211.7	183.88	104.92	303.9	91.401	77.361	263.83	102.47	51.3	295.9	90.559	50.125	235.25	263.32	42.135	179.32	301.74	38.055	287.91	353.71	50.719	228.25	329.14	1473.9	321.64	283.86	1209.9	291.74
366	1.5208	551.53	1172.2	329.69	408.85	1416.5	465.43	429.87	1429.6	164.61	443.28	1730.8	325.99	485.36	1007.6	426.05	489.26	1006.4	181.04	265.83	1031.4	348.23	275.04	1041.7	259.28	402.6	921.99	497.38	402.78	926.06	109.85	397.51	1085.2	467	393.18	1107.1	147.53	252.38	1001.5	299.02	474.64	683.06	487	572.43	605.75	452.4	494.43	593.57	461.78	546.05	689.71	477.87	575.37	532.74	444.74	566.34	514.1	319.18	569.76	349.17	462.15	655.41	317.79	453.67	596.24	276.96	455.98	624.48	385.09	460.82	700.42	110.12	447.82	723.98	131.6	363.43	652.82	63.386	394.91	677.81	39.682	367.48	667.69	37.614	431.4	815.57	94.796	489.21	857.36	122.71	388.03	889.4	158.89	432.73	276	699.43	166.41	326.97	583.87	162.4	265.24	609.93	181.8	338.12	670.47	141.11	290.35	507.22	175.02	314.33	517.08	305.33	210.58	385.58	168.2	253.02	284.83	185.02	194.04	311.04	178.61	269.05	360.83	175.82	169.92	111.38	211.8	184.29	105.22	304	91.568	77.799	263.88	102.58	51.707	295.95	90.654	50.566	235.31	263.38	42.093	179.36	301.85	37.95	287.88	353.87	50.444	228.22	334.45	1472.9	322.12	289.22	1208.8	292.35
367	1.525	557.12	1171.1	330.14	414.25	1415.6	465.95	434.93	1428.5	165	448.41	1730	326.28	491.02	1006.7	426.56	494.48	1005.3	181.46	271.32	1030.6	348.9	280.45	1040.8	259.97	408.35	921.2	497.85	407.63	925.18	110.21	403.13	1084.3	467.61	398.55	1106.2	148.08	257.82	1000.7	299.72	480.5	682.36	486.98	578.47	605.29	452.28	500.47	592.96	461.58	551.93	689.14	478	581.36	532.12	444.47	572.84	513.92	319.13	574.9	348.48	461.55	660.35	316.67	453.04	600.96	276.16	455.3	629.79	384.1	460.28	704.44	109.11	447.03	727.82	130.43	362.59	656.45	63.296	394.31	681.12	39.385	366.8	671.13	37.396	430.75	819.45	93.09	488.2	861.21	120.74	386.97	893.51	156.72	431.61	280.57	698.89	166.78	331.24	583.18	162.89	269.59	609.42	182.27	342.62	669.75	141.52	294.33	506.65	175.59	318.37	516.44	305.88	213.66	385.68	168.58	255.23	284.55	185.39	196.49	311.28	178.94	271.93	360.43	176.25	170.39	111.9	211.92	184.73	105.56	304.11	91.765	78.318	263.95	102.7	52.189	296.01	90.765	51.087	235.37	263.45	42.057	179.41	301.96	37.845	287.86	354.04	50.156	228.19	339.77	1472	322.62	294.61	1207.7	292.97
368	1.5292	562.73	1170.1	330.62	419.67	1414.7	466.48	439.99	1427.5	165.41	453.55	1729.2	326.58	496.71	1005.8	427.06	499.71	1004.3	181.87	276.83	1029.8	349.57	285.88	1040	260.66	414.17	920.49	498.33	412.5	924.3	110.6	408.76	1083.5	468.21	403.94	1105.3	148.63	263.28	999.91	300.42	486.43	681.71	486.95	584.6	604.89	452.14	506.61	592.4	461.36	557.88	688.62	478.11	587.41	531.53	444.19	579.49	513.83	319.09	579.88	347.82	460.89	665.11	315.5	452.43	605.46	275.37	454.59	635	383.09	459.75	708.04	108.03	446.27	731.29	129.13	361.79	659.61	63.284	393.74	683.91	39.122	366.15	674.04	37.226	430.11	822.85	91.119	487.24	864.65	118.43	385.97	897.26	154.16	430.56	285.24	698.32	167.2	335.62	582.48	163.45	274.04	608.89	182.8	347.22	669	141.99	298.43	506.07	176.23	322.51	515.82	306.51	216.84	385.8	169.03	257.51	284.3	185.81	199.01	311.55	179.32	274.89	360.04	176.74	170.89	112.48	212.06	185.21	105.94	304.25	91.996	78.927	264.02	102.85	52.755	296.08	90.894	51.696	235.45	263.53	42.031	179.46	302.08	37.741	287.83	354.23	49.855	228.15	345.11	1471.2	323.14	300.02	1206.7	293.59
369	1.5333	568.37	1169.2	331.12	425.11	1413.9	467.03	445.07	1426.6	165.83	458.68	1728.5	326.88	502.42	1004.9	427.55	504.96	1003.4	182.27	282.37	1029	350.24	291.34	1039.1	261.35	420.07	919.85	498.82	417.39	923.42	111	414.41	1082.8	468.8	409.35	1104.5	149.18	268.76	999.15	301.14	492.44	681.11	486.91	590.8	604.54	451.97	512.82	591.89	461.12	563.9	688.16	478.19	593.51	530.97	443.9	586.27	513.83	319.07	584.73	347.2	460.2	669.71	314.29	451.83	609.75	274.6	453.85	640.1	382.07	459.21	711.26	106.9	445.56	734.43	127.73	361.03	662.35	63.352	393.2	686.24	38.899	365.54	676.47	37.109	429.52	825.84	88.923	486.34	867.72	115.81	385.03	900.69	151.24	429.59	289.98	697.71	167.65	340.11	581.76	164.08	278.6	608.33	183.39	351.92	668.24	142.51	302.64	505.48	176.94	326.75	515.21	307.21	220.11	385.94	169.53	259.86	284.06	186.27	201.62	311.86	179.76	277.94	359.65	177.28	171.43	113.12	212.23	185.74	106.36	304.4	92.267	79.634	264.11	103.02	53.415	296.17	91.046	52.405	235.54	263.61	42.014	179.51	302.22	37.64	287.8	354.43	49.543	228.12	350.45	1470.3	323.68	305.44	1205.7	294.23
370	1.5375	574.02	1168.3	331.65	430.56	1413.2	467.59	450.15	1425.7	166.26	463.81	1727.8	327.19	508.17	1004.2	428.02	510.23	1002.4	182.66	287.93	1028.4	350.91	296.82	1038.3	262.04	426.03	919.28	499.31	422.31	922.55	111.42	420.08	1082.1	469.38	414.77	1103.6	149.71	274.27	998.42	301.87	498.5	680.56	486.86	597.05	604.25	451.77	519.08	591.43	460.88	569.97	687.75	478.26	599.65	530.44	443.6	593.13	513.9	319.05	589.47	346.63	459.49	674.17	313.07	451.26	613.87	273.86	453.11	645.12	381.05	458.69	714.15	105.74	444.89	737.28	126.25	360.32	664.73	63.498	392.72	688.17	38.722	364.98	678.48	37.05	428.99	828.46	86.54	485.48	870.48	112.94	384.17	903.85	148.02	428.69	294.81	697.09	168.16	344.72	581.03	164.78	283.27	607.74	184.05	356.71	667.46	143.08	306.96	504.89	177.71	331.1	514.62	307.99	223.49	386.11	170.1	262.29	283.85	186.79	204.31	312.19	180.26	281.08	359.28	177.88	172.02	113.83	212.41	186.31	106.84	304.57	92.58	80.451	264.21	103.22	54.178	296.26	91.224	53.224	235.64	263.71	42.009	179.57	302.36	37.544	287.77	354.65	49.22	228.09	355.81	1469.6	324.24	310.89	1204.7	294.86
371	1.5417	579.69	1167.6	332.2	436.03	1412.5	468.17	455.25	1424.8	166.72	468.94	1727.2	327.5	513.94	1003.5	428.46	515.51	1001.5	183.04	293.52	1027.7	351.58	302.33	1037.5	262.73	432.07	918.77	499.83	427.26	921.68	111.85	425.76	1081.5	469.95	420.21	1102.8	150.23	279.8	997.74	302.61	504.61	680.05	486.8	603.34	604	451.54	525.39	591.01	460.62	576.08	687.39	478.3	605.82	529.95	443.3	600.03	514.02	319.04	594.11	346.12	458.79	678.52	311.85	450.72	617.85	273.16	452.38	650.06	380.06	458.19	716.77	104.56	444.28	739.88	124.72	359.66	666.82	63.723	392.3	689.75	38.594	364.49	680.14	37.05	428.51	830.76	84.01	484.69	872.96	109.86	383.36	906.77	144.54	427.86	299.73	696.44	168.72	349.45	580.3	165.54	288.05	607.13	184.77	361.59	666.68	143.71	311.41	504.28	178.55	335.57	514.03	308.83	226.96	386.31	170.72	264.8	283.66	187.34	207.09	312.57	180.81	284.32	358.92	178.52	172.67	114.61	212.62	186.94	107.38	304.76	92.943	81.387	264.32	103.45	55.056	296.37	91.432	54.162	235.76	263.82	42.017	179.64	302.53	37.455	287.74	354.88	48.887	228.05	361.17	1468.8	324.81	316.36	1203.9	295.51
